<svg width="96" height="24" viewBox="0 0 96 24" fill="#10938A" xmlns="http://www.w3.org/2000/svg">
<path fill-rule="evenodd" clip-rule="evenodd" d="M80.3531 9.00821L80.3521 9.00734C79.8382 8.56305 79.1264 8.61468 78.6373 8.88188C78.3878 9.01816 78.1671 9.22439 78.0477 9.48863C77.9242 9.76228 77.9196 10.0784 78.0771 10.3893L78.082 10.3989L78.0875 10.4081C78.3463 10.8395 78.3397 11.2364 78.1893 11.5109C78.0405 11.7827 77.715 11.9998 77.1967 11.9998C76.6759 11.9998 76.3114 11.7778 76.0638 11.3992C75.8061 11.005 75.6664 10.4239 75.6664 9.71513C75.6664 9.07795 75.9597 8.35516 76.4591 7.77219C76.9571 7.19095 77.6335 6.77915 78.3692 6.71895C79.8167 6.60052 80.9345 7.11755 81.6955 7.94943C82.4625 8.78797 82.8786 9.96049 82.8786 11.1578C82.8786 14.4737 80.2058 16.9341 77.0559 16.9341C73.3423 16.9341 71 14.0706 71 10.517C71 9.67918 71.08 8.76251 71.3219 7.5349C71.3787 7.252 71.3524 6.99605 71.2388 6.78936C71.1238 6.58028 70.9354 6.45145 70.7303 6.4023C70.3319 6.30679 69.8696 6.50986 69.6861 6.95772C69.2346 8.05427 68.736 9.82094 68.736 11.1578C68.736 13.733 69.6064 15.8968 71.0928 17.4181C72.5793 18.9397 74.6639 19.8 77.0559 19.8C81.648 19.8 85.736 16.0224 85.736 11.1578C85.736 9.56733 85.1491 7.73568 83.9811 6.2972C82.8071 4.85135 81.0423 3.8 78.7059 3.8C76.8912 3.8 75.3176 4.38331 74.1953 5.44696C73.0713 6.51231 72.423 8.038 72.423 9.87563C72.423 12.4089 74.1723 14.9878 77.3966 14.9878C78.6992 14.9878 79.6599 14.3798 80.288 13.6358C80.9067 12.9029 81.2223 12.0151 81.2223 11.4024C81.2223 11.1613 81.1986 10.7399 81.0833 10.2957C80.9689 9.85543 80.7559 9.35961 80.3531 9.00821Z" />
<path d="M95.4309 7.76778H93.0332V14.109C93.0332 14.6777 93.1367 15.0758 93.3435 15.3033C93.5504 15.5308 93.8701 15.6446 94.3026 15.6446H95.4309C95.8071 15.6446 95.9951 15.8341 95.9951 16.2133V18.4313C95.9951 18.8104 95.8071 19 95.4309 19H93.8231C90.6637 19 89.084 17.3886 89.084 14.1659V7.76778H87.8147C87.4386 7.76778 87.2505 7.5782 87.2505 7.19906V4.98105C87.2505 4.6019 87.4386 4.41233 87.8147 4.41233H89.084V0.56872C89.084 0.189573 89.2721 0 89.6482 0H92.4691C92.8452 0 93.0332 0.189573 93.0332 0.56872V4.41233H95.4309C95.8071 4.41233 95.9951 4.6019 95.9951 4.98105V7.19906C95.9951 7.5782 95.8071 7.76778 95.4309 7.76778Z" />
<path d="M55.5642 4.41233H57.9055C58.3004 4.41233 58.526 4.60191 58.5825 4.98105L58.6953 5.60665C59.4475 4.62086 60.5194 4.12797 61.9111 4.12797C63.4155 4.12797 64.5627 4.63982 65.3525 5.66352C66.1611 6.66826 66.5654 7.99527 66.5654 9.64456V13.7678C66.5654 15.4171 66.1611 16.7536 65.3525 17.7773C64.5627 18.782 63.4155 19.2844 61.9111 19.2844C60.6887 19.2844 59.7014 18.8863 58.9492 18.0901V23.4313C58.9492 23.8104 58.7611 24 58.385 24H55.5642C55.188 24 55 23.8104 55 23.4313V4.98105C55 4.60191 55.188 4.41233 55.5642 4.41233ZM62.6163 9.64456C62.6163 9.03792 62.4564 8.54503 62.1367 8.16589C61.8358 7.78674 61.4033 7.59717 60.8391 7.59717C60.275 7.59717 59.8142 7.78674 59.4569 8.16589C59.1184 8.54503 58.9492 9.03792 58.9492 9.64456V13.7678C58.9492 14.3744 59.1184 14.8673 59.4569 15.2465C59.8142 15.6256 60.275 15.8152 60.8391 15.8152C61.4033 15.8152 61.8358 15.6256 62.1367 15.2465C62.4564 14.8673 62.6163 14.3744 62.6163 13.7678V9.64456Z" />
<path d="M47.4225 7.65404H42.7963C42.4202 7.65404 42.2321 7.46446 42.2321 7.08532V4.98105C42.2321 4.60191 42.4202 4.41233 42.7963 4.41233H51.7948C52.1709 4.41233 52.359 4.60191 52.359 4.98105V6.11849C52.359 6.47868 52.2649 6.82939 52.0769 7.17063L46.9711 15.7583H51.9358C52.3119 15.7583 52.5 15.9479 52.5 16.327V18.4313C52.5 18.8104 52.3119 19 51.9358 19H42.5988C42.2227 19 42.0347 18.8104 42.0347 18.4313V17.2938C42.0347 16.9337 42.1287 16.5829 42.3167 16.2417L47.4225 7.65404Z" />
<path d="M31.8329 9.64456V18.4313C31.8329 18.8104 31.6448 19 31.2687 19H28.4479C28.0718 19 27.8837 18.8104 27.8837 18.4313V4.98105C27.8837 4.60191 28.0718 4.41233 28.4479 4.41233H30.7892C31.1841 4.41233 31.4098 4.60191 31.4662 4.98105L31.579 5.66352C32.3689 4.63982 33.4878 4.12797 34.9358 4.12797C36.4403 4.12797 37.5686 4.60191 38.3208 5.54977C39.0731 6.49764 39.4492 7.76778 39.4492 9.3602V18.4313C39.4492 18.8104 39.2611 19 38.885 19H36.0642C35.6881 19 35.5 18.8104 35.5 18.4313V9.64456C35.5 9.03792 35.3401 8.54503 35.0205 8.16589C34.7196 7.78674 34.287 7.59717 33.7229 7.59717C33.1587 7.59717 32.698 7.78674 32.3407 8.16589C32.0022 8.54503 31.8329 9.03792 31.8329 9.64456Z" />
<path d="M18.1376 12.9147V13.8815C18.1376 14.4123 18.3162 14.8389 18.6736 15.1611C19.0497 15.4834 19.5668 15.6446 20.225 15.6446H24.1178C24.4939 15.6446 24.682 15.8341 24.682 16.2133V18.4313C24.682 18.8104 24.4939 19 24.1178 19H19.9994C18.288 19 16.9058 18.5166 15.8527 17.5498C14.7996 16.564 14.273 15.2465 14.273 13.5972V9.81518C14.273 8.09006 14.7902 6.71565 15.8245 5.69195C16.8776 4.6493 18.2598 4.12797 19.9711 4.12797C21.626 4.12797 22.9612 4.6493 23.9767 5.69195C24.9922 6.71565 25.5 8.09006 25.5 9.81518V12.346C25.5 12.7251 25.3119 12.9147 24.9358 12.9147H18.1376ZM19.9711 7.28437C19.407 7.28437 18.9556 7.47394 18.6171 7.85309C18.2974 8.23224 18.1376 8.72513 18.1376 9.33176V10.2702H21.7483V9.33176C21.7483 8.72513 21.5884 8.23224 21.2687 7.85309C20.949 7.47394 20.5165 7.28437 19.9711 7.28437Z" />
<path d="M6.48795 3.95734H0.761628C0.385516 3.95734 0.197459 3.76777 0.197459 3.38862V0.886255C0.197459 0.507109 0.385516 0.317535 0.761628 0.317535H11.2948C11.6709 0.317535 11.859 0.507109 11.859 0.886255V2.36493C11.859 2.74407 11.7743 3.10426 11.6051 3.4455L4.96469 15.3602H11.4358C11.8119 15.3602 12 15.5498 12 15.9289V18.4313C12 18.8104 11.8119 19 11.4358 19H0.564169C0.188056 19 0 18.8104 0 18.4313V16.9526C0 16.5735 0.0846254 16.2133 0.253876 15.872L6.48795 3.95734Z"/>
</svg>